# xmcd
#
# Track frame offsets: 
#        150
#        32438
#        65363
#        92273
#        115324
#        153136
#        183428
#        202650
#        234646
#        261647
#
# Disc length: 4092 seconds
#
# Revision: 0
# Processed by: cddbd v1.5.2PL0 Copyright (c) Steve Scherf et al.
# Submitted via: ExactAudioCopy v0.95b4
#
DISCID=770ffa0a
DTITLE=Pain of Salvation - Scarsick
DYEAR=2007
DGENRE=Progressive metal
TTITLE0=Scarsick
TTITLE1=Spitfall
TTITLE2=Cribcaged
TTITLE3=America
TTITLE4=Disco Queen
TTITLE5=Kingdom of Loss
TTITLE6=Mrs. Modern Mother Mary
TTITLE7=Idiocracy
TTITLE8=Flame to the Moth
TTITLE9=Enter Rain
EXTD=
EXTT0=
EXTT1=
EXTT2=
EXTT3=
EXTT4=
EXTT5=
EXTT6=
EXTT7=
EXTT8=
EXTT9=
PLAYORDER=
